<?xml version="1.0" encoding="UTF-8" standalone="no"?>
<svg width="68px" height="66px" viewBox="0 0 68 66" version="1.1" xmlns="http://www.w3.org/2000/svg" xmlns:xlink="http://www.w3.org/1999/xlink">
    <!-- Generator: Sketch 3.8.3 (29802) - http://www.bohemiancoding.com/sketch -->
    <title>Page 1</title>
    <desc>Created with Sketch.</desc>
    <defs>
        <path d="M12.4036909,0.331966849 C5.81560946,0.419951331 0.503214403,5.72792947 0.503214403,12.2664334 C0.503214403,18.8577281 5.90455174,24.2021569 12.5688694,24.2021569 C19.233187,24.2021569 24.6332538,18.8577281 24.6332538,12.2664334 C24.6332538,5.72792947 19.3221293,0.419951331 12.7353185,0.331966849 L12.4036909,0.331966849 L12.4036909,0.331966849 Z" id="path-1"></path>
    </defs>
    <g id="Page-1" stroke="none" stroke-width="1" fill="none" fill-rule="evenodd">
        <g>
            <polygon id="Fill-1" fill="#DFE6EB" points="0.162637304 55.1515133 53.9828789 55.1515133 53.9828789 12.5607392 0.162637304 12.5607392"></polygon>
            <polygon id="Fill-2" fill="#DFE6EB" points="0.162764364 47.793371 0.162764364 65.9320006 13.4265989 47.793371"></polygon>
            <g id="Group-5" transform="translate(42.675719, 0.516781)">
                <mask id="mask-2" fill="white">
                    <use xlink:href="#path-1"></use>
                </mask>
                <g id="Clip-4"></g>
                <polygon id="Fill-3" fill="#00B4A0" mask="url(#mask-2)" points="-18.718482 43.2168605 43.8562207 43.2168605 43.8562207 -18.6839937 -18.718482 -18.6839937"></polygon>
            </g>
            <polygon id="Fill-6" fill="#142934" points="11.7696043 27.4690813 44.0594621 27.4690813 44.0594621 23.2093754 11.7696043 23.2093754"></polygon>
            <polygon id="Fill-7" fill="#142934" points="11.7696043 35.988493 44.0594621 35.988493 44.0594621 31.7287872 11.7696043 31.7287872"></polygon>
            <polygon id="Fill-8" fill="#142934" points="11.7696043 44.504134 44.0594621 44.504134 44.0594621 40.2444281 11.7696043 40.2444281"></polygon>
            <path d="M42.426609,12.3651623 C42.426609,5.54259411 48.0172663,0.0121409275 54.9141045,0.0121409275 C61.8109427,0.0121409275 67.4016,5.54259411 67.4016,12.3651623 C67.4016,19.1877304 61.8109427,24.7181836 54.9141045,24.7181836 C48.0172663,24.7181836 42.426609,19.1877304 42.426609,12.3651623" id="Fill-9" fill="#4178BE"></path>
        </g>
    </g>
</svg>