<?xml version="1.0" encoding="UTF-8" standalone="no"?>
<svg width="36px" height="36px" viewBox="0 0 36 36" version="1.1" xmlns="http://www.w3.org/2000/svg" xmlns:xlink="http://www.w3.org/1999/xlink">
    <!-- Generator: Sketch 39.1 (31720) - http://www.bohemiancoding.com/sketch -->
    <title>start from a tutorial</title>
    <desc>Created with Sketch.</desc>
    <defs></defs>
    <g id="Mobile-Category-Tabs" stroke="none" stroke-width="1" fill="none" fill-rule="evenodd">
        <g id="Getting-Started" transform="translate(-994.000000, -245.000000)">
            <g id="start-from-a-tutorial" transform="translate(995.000000, 246.000000)">
                <path d="M34.0974242,34.0974242 C34.0974242,29.1486364 30.6631818,25.0048485 26.0495455,23.9113636 C28.1378788,22.9822727 29.5951515,20.8928788 29.5951515,18.4587879 C29.5951515,15.1624242 26.9234848,12.489697 23.6260606,12.489697 C20.329697,12.489697 17.6569697,15.1624242 17.6569697,18.4587879 C17.6569697,20.8928788 19.115303,22.9822727 21.2036364,23.9113636 C16.59,25.0048485 13.1557576,29.1486364 13.1557576,34.0974242 L34.0974242,34.0974242 Z" id="Stroke-1" stroke="#5AAAFA" stroke-linecap="round" stroke-linejoin="round"></path>
                <g id="Page-1" transform="translate(13.000000, 12.387985)">
                    <path d="M20.1782,20.8058 C20.1782,16.1398 16.9402,12.2328 12.5902,11.2018 C14.5582,10.3258 15.9332,8.3558 15.9332,6.0608 C15.9332,2.9528 13.4142,0.4328 10.3052,0.4328 C7.1972,0.4328 4.6772,2.9528 4.6772,6.0608 C4.6772,8.3558 6.0522,10.3258 8.0212,11.2018 C3.6712,12.2328 0.4332,16.1398 0.4332,20.8058 L20.1782,20.8058 Z" id="Fill-1" fill="#5AAAFA"></path>
                    <path d="M20.1782,20.8058 C20.1782,16.1398 16.9402,12.2328 12.5902,11.2018 C14.5582,10.3258 15.9332,8.3558 15.9332,6.0608 C15.9332,2.9528 13.4142,0.4328 10.3052,0.4328 C7.1972,0.4328 4.6772,2.9528 4.6772,6.0608 C4.6772,8.3558 6.0522,10.3258 8.0212,11.2018 C3.6712,12.2328 0.4332,16.1398 0.4332,20.8058 L20.1782,20.8058 L20.1782,20.8058 Z" id="Stroke-3" stroke="#5AAAFA" stroke-width="0.866" stroke-linecap="round" stroke-linejoin="round"></path>
                </g>
                <path d="M23.6264848,12.4901212 L23.6264848,1.96042424 C23.6264848,1.1310303 22.9540606,0.459666667 22.1257273,0.459666667 L1.96042424,0.459666667 C1.1310303,0.459666667 0.459666667,1.1310303 0.459666667,1.96042424 L0.459666667,25.6872424 L17.3901212,25.6872424" id="Stroke-3" stroke="#5AAAFA" stroke-linecap="round"></path>
                <path d="M23.6264848,5.18328788 L0.459666667,5.18328788" id="Stroke-5" stroke="#5AAAFA" stroke-linecap="round" stroke-linejoin="round"></path>
                <path d="M21.8813636,2.95293939 C21.8813636,2.54142424 21.5472727,2.20733333 21.1357576,2.20733333 C20.7242424,2.20733333 20.3901515,2.54142424 20.3901515,2.95293939 C20.3901515,3.36445455 20.7242424,3.69854545 21.1357576,3.69854545 C21.5472727,3.69854545 21.8813636,3.36445455 21.8813636,2.95293939" id="Fill-7" fill="#5AAAFA"></path>
                <path d="M18.6449242,2.95293939 C18.6449242,2.54142424 18.3108333,2.20733333 17.8993182,2.20733333 C17.487803,2.20733333 17.1537121,2.54142424 17.1537121,2.95293939 C17.1537121,3.36445455 17.487803,3.69854545 17.8993182,3.69854545 C18.3108333,3.69854545 18.6449242,3.36445455 18.6449242,2.95293939" id="Fill-9" fill="#5AAAFA"></path>
                <path d="M15.4085909,2.95293939 C15.4085909,2.54142424 15.0745,2.20733333 14.6629848,2.20733333 C14.2514697,2.20733333 13.9173788,2.54142424 13.9173788,2.95293939 C13.9173788,3.36445455 14.2514697,3.69854545 14.6629848,3.69854545 C15.0745,3.69854545 15.4085909,3.36445455 15.4085909,2.95293939" id="Fill-11" fill="#5AAAFA"></path>
                <path d="M4.38921212,12.3879848 L10.8514848,12.3879848" id="Stroke-13" stroke="#5AAAFA" stroke-linecap="round" stroke-linejoin="round"></path>
                <path d="M4.38921212,8.86889394 L10.8514848,8.86889394" id="Stroke-15" stroke="#5AAAFA" stroke-linecap="round" stroke-linejoin="round"></path>
                <path d="M4.38921212,15.9069697 L10.8514848,15.9069697" id="Stroke-17" stroke="#5AAAFA" stroke-linecap="round" stroke-linejoin="round"></path>
            </g>
        </g>
    </g>
</svg>